<?xml version="1.0" encoding="UTF-8" standalone="no"?>
<svg
   xmlns:dc="http://purl.org/dc/elements/1.1/"
   xmlns:cc="http://creativecommons.org/ns#"
   xmlns:rdf="http://www.w3.org/1999/02/22-rdf-syntax-ns#"
   xmlns:svg="http://www.w3.org/2000/svg"
   xmlns="http://www.w3.org/2000/svg"
   version="1.1"
   xml:space="preserve"
   viewBox="0 0 225 198.75">
   <defs
     id="defs3368" />
     <g
     id="g3372"
     transform="matrix(1.25,0,0,-1.25,0,198.75)"><g
       id="g3374"
       transform="scale(0.1,0.1)"><path
         d="m 80,1560 1640,0 c 27.61,0 50,-22.39 50,-50 l 0,-1430 c 0,-27.6133 -22.39,-50 -50,-50 L 80,30 C 52.3867,30 30,52.3867 30,80 l 0,1430 c 0,27.61 22.3867,50 50,50 z"
         style="fill:none;stroke:#fefeff;stroke-width:30;stroke-linecap:round;stroke-linejoin:round;stroke-miterlimit:10;stroke-dasharray:none;stroke-opacity:1"
         id="path3376"
         /><path
         d="m 230,1045 1340,0 c 27.61,0 50,-22.39 50,-50 l 0,-530 c 0,-27.613 -22.39,-50 -50,-50 l -1340,0 c -27.613,0 -50,22.387 -50,50 l 0,530 c 0,27.61 22.387,50 50,50 z"
         style="fill:none;stroke:#fefeff;stroke-width:30;stroke-linecap:round;stroke-linejoin:round;stroke-miterlimit:10;stroke-dasharray:none;stroke-opacity:1"
         id="path3378"
         /><path
         d="m 230,1315 1340,0 c 27.61,0 50,-22.39 50,-50 l 0,-80 c 0,-27.61 -22.39,-50 -50,-50 l -1340,0 c -27.613,0 -50,22.39 -50,50 l 0,80 c 0,27.61 22.387,50 50,50 z"
         style="fill:none;stroke:#fefeff;stroke-width:30;stroke-linecap:round;stroke-linejoin:round;stroke-miterlimit:10;stroke-dasharray:none;stroke-opacity:1"
         id="path3380"
         /><path
         d="m 230,325 1340,0 c 27.61,0 50,-22.387 50,-50 l 0,-80 c 0,-27.613 -22.39,-50 -50,-50 l -1340,0 c -27.613,0 -50,22.387 -50,50 l 0,80 c 0,27.613 22.387,50 50,50 z"
         style="fill:none;stroke:#33C3F0;stroke-width:30;stroke-linecap:round;stroke-linejoin:round;stroke-miterlimit:10;stroke-dasharray:none;stroke-opacity:1"
         id="path3382"
         /><path
         d="m 103.18,1491.57 c -17.5745,-17.57 -17.5745,-46.07 0,-63.64 17.574,-17.57 46.066,-17.57 63.64,0 17.575,17.57 17.575,46.07 0,63.64 -17.574,17.57 -46.066,17.57 -63.64,0"
         style="fill:#f66f80;fill-opacity:1;fill-rule:nonzero;stroke:none"
         id="path3384"
         /><path
         d="m 103.18,1491.57 c -17.5745,-17.57 -17.5745,-46.07 0,-63.64 17.574,-17.57 46.066,-17.57 63.64,0 17.575,17.57 17.575,46.07 0,63.64 -17.574,17.57 -46.066,17.57 -63.64,0"
         style="fill:none;stroke:#ba1a22;stroke-width:30;stroke-linecap:round;stroke-linejoin:round;stroke-miterlimit:10;stroke-dasharray:none;stroke-opacity:1"
         id="path3386"
         /><path
         d="m 236.848,1491.57 c -17.575,-17.57 -17.575,-46.07 0,-63.64 17.574,-17.57 46.066,-17.57 63.64,0 17.575,17.57 17.575,46.07 0,63.64 -17.574,17.57 -46.066,17.57 -63.64,0"
         style="fill:#ff9a56;fill-opacity:1;fill-rule:nonzero;stroke:none"
         id="path3388"
         /><path
         d="m 236.848,1491.57 c -17.575,-17.57 -17.575,-46.07 0,-63.64 17.574,-17.57 46.066,-17.57 63.64,0 17.575,17.57 17.575,46.07 0,63.64 -17.574,17.57 -46.066,17.57 -63.64,0"
         style="fill:none;stroke:#bb5000;stroke-width:30;stroke-linecap:round;stroke-linejoin:round;stroke-miterlimit:10;stroke-dasharray:none;stroke-opacity:1"
         id="path3390"
         /></g></g></svg>