<?xml version="1.0" encoding="UTF-8" standalone="no"?>
<svg
   xmlns:dc="http://purl.org/dc/elements/1.1/"
   xmlns:cc="http://creativecommons.org/ns#"
   xmlns:rdf="http://www.w3.org/1999/02/22-rdf-syntax-ns#"
   xmlns:svg="http://www.w3.org/2000/svg"
   xmlns="http://www.w3.org/2000/svg"
   xmlns:sodipodi="http://sodipodi.sourceforge.net/DTD/sodipodi-0.dtd"
   width="300"
   height="300"
   viewBox="0 0 300 300"
   id="svg2"
   version="1.1"
   sodipodi:docname="kemo-logo.svg">
  <metadata
     id="metadata3349">
    <rdf:RDF>
      <cc:Work
         rdf:about="">
        <dc:format>image/svg+xml</dc:format>
        <dc:type
           rdf:resource="http://purl.org/dc/dcmitype/StillImage" />
      </cc:Work>
    </rdf:RDF>
  </metadata>
  <defs
     id="defs4" />
  <sodipodi:namedview
     id="base"
     pagecolor="#ffffff"
     bordercolor="#ffffff"
     borderopacity="0.0"
     showgrid="false"/>
  <g id="layer1">
    <g
       id="g3346"
       transform="translate(0,-752.36223)">
      <path
         style="fill:#ffffff;fill-opacity:1"
         d="M 300,902.3622 A 150,150 0 0 1 151.28808,1052.3567 150,150 0 0 1 0.02212,904.93827 150,150 0 0 1 146.13614,752.41198 150,150 0 0 1 299.91151,897.21084"
         id="path3338"/>
      <g
         transform="matrix(4.3741991,0,0,4.3741991,-1014.041,-732.10599)"
         style="font-style:normal;font-weight:normal;font-size:40px;line-height:125%;font-family:Sans;letter-spacing:0px;word-spacing:0px;fill:#000000;fill-opacity:1;stroke:none;stroke-width:1px;stroke-linecap:butt;stroke-linejoin:miter;stroke-opacity:1"
         id="flowRoot3340">
        <path
           d="m 243.25391,359.31543 5.46875,0 0,15.50781 6.93359,-8.00781 6.89453,0 -7.44141,8.14453 7.73438,13.04688 -6.71875,0 -5.09766,-9.10157 -2.30468,2.40235 0,6.69922 -5.46875,0 0,-28.69141 z"
           style="fill:#565695;fill-opacity:1"
           id="path3353"/>
        <path
           d="m 265.40234,382.18652 5.91797,0 0,5.82032 -5.91797,0 0,-5.82032 z"
           style="fill:#ff69b4;fill-opacity:1"
           id="path3355"/>
        <path
           d="m 288.23437,366.20996 q 0.15625,0 0.25391,0.0195 0.11719,0 0.48828,0.0195 l 0,5.70313 q -0.52734,-0.0586 -0.9375,-0.0781 -0.41015,-0.0195 -0.66406,-0.0195 -3.35938,0 -4.51172,2.1875 -0.64453,1.23047 -0.64453,3.78906 l 0,10.17579 -5.60547,0 0,-21.28907 5.3125,0 0,3.71094 q 1.28906,-2.12891 2.24609,-2.91016 1.5625,-1.30859 4.0625,-1.30859 z"
           style="fill:#565695;fill-opacity:1"
           id="path3357"/>
      </g>
    </g>
  </g>
</svg>
